HIERARCHY
ROOT Hips
{
	OFFSET 0.000000 0.000000 0.000000
	CHANNELS 6 Xposition Yposition Zposition Xrotation Yrotation Zrotation
	JOINT LeftUpLeg_virtual
	{
		OFFSET 0.000000 0.000000 0.000000
		CHANNELS 3 Xrotation Yrotation Zrotation
		JOINT LeftUpLeg
		{
			OFFSET 15.427100 -6.655098 0.678600
			CHANNELS 3 Xrotation Yrotation Zrotation
			JOINT LeftLeg
			{
				OFFSET 4.081073 -39.591068 13.024000
				CHANNELS 3 Xrotation Yrotation Zrotation
				JOINT LeftFoot
				{
					OFFSET -4.081074 -37.707932 -15.979700
					CHANNELS 3 Xrotation Yrotation Zrotation
					JOINT LeftToeBase
					{
						OFFSET 5.346399 -15.068900 20.645000
						CHANNELS 3 Xrotation Yrotation Zrotation
						JOINT LeftToe_End
						{
							OFFSET 2.754700 0.931300 11.300900
							CHANNELS 3 Xrotation Yrotation Zrotation
							End Site
							{
								OFFSET 0 0 0
							}
						}
					}
				}
			}
		}
	}
	JOINT RightUpLeg_virtual
	{
		OFFSET 0.000000 0.000000 0.000000
		CHANNELS 3 Xrotation Yrotation Zrotation
		JOINT RightUpLeg
		{
			OFFSET -15.569500 -6.655098 0.678600
			CHANNELS 3 Xrotation Yrotation Zrotation
			JOINT RightLeg
			{
				OFFSET -4.081825 -39.591045 13.023800
				CHANNELS 3 Xrotation Yrotation Zrotation
				JOINT RightFoot
				{
					OFFSET 4.081824 -37.707954 -15.979600
					CHANNELS 3 Xrotation Yrotation Zrotation
					JOINT RightToeBase
					{
						OFFSET -5.346400 -15.068900 20.645000
						CHANNELS 3 Xrotation Yrotation Zrotation
						JOINT RightToe_End
						{
							OFFSET -2.754700 0.931300 11.300900
							CHANNELS 3 Xrotation Yrotation Zrotation
							End Site
							{
								OFFSET 0 0 0
							}
						}
					}
				}
			}
		}
	}
	JOINT Spine_virtual
	{
		OFFSET 0.000000 0.000000 0.000000
		CHANNELS 3 Xrotation Yrotation Zrotation
		JOINT Spine
		{
			OFFSET -0.279200 12.230698 -2.892100
			CHANNELS 3 Xrotation Yrotation Zrotation
			JOINT Spine1
			{
				OFFSET -0.232667 10.192268 -1.242267
				CHANNELS 3 Xrotation Yrotation Zrotation
				JOINT Spine1_split
				{
					OFFSET -0.232667 10.192268 -1.242267
					CHANNELS 3 Xrotation Yrotation Zrotation
					JOINT Spine2
					{
						OFFSET -0.232667 10.192268 -1.242267
						CHANNELS 3 Xrotation Yrotation Zrotation
						JOINT Neck_virtual
						{
							OFFSET 0.000000 0.000000 0.000000
							CHANNELS 3 Xrotation Yrotation Zrotation
							JOINT Neck
							{
								OFFSET -0.418800 17.814194 8.416900
								CHANNELS 3 Xrotation Yrotation Zrotation
								JOINT Head
								{
									OFFSET 0.000000 7.031097 3.806800
									CHANNELS 3 Xrotation Yrotation Zrotation
									JOINT HeadTop_End
									{
										OFFSET 0.000000 24.646606 12.978600
										CHANNELS 3 Xrotation Yrotation Zrotation
										End Site
										{
											OFFSET 0 0 0
										}
									}
								}
							}
						}
						JOINT LeftShoulder_virtual
						{
							OFFSET 0.000000 0.000000 0.000000
							CHANNELS 3 Xrotation Yrotation Zrotation
							JOINT LeftShoulder
							{
								OFFSET 8.476499 7.247704 -3.868750
								CHANNELS 3 Xrotation Yrotation Zrotation
								JOINT LeftShoulder_split
								{
									OFFSET 8.476499 7.247704 -3.868750
									CHANNELS 3 Xrotation Yrotation Zrotation
									JOINT LeftArm
									{
										OFFSET 9.308998 -2.777710 0.208600
										CHANNELS 3 Xrotation Yrotation Zrotation
										JOINT LeftForeArm
										{
											OFFSET 29.972298 0.000000 0.000000
											CHANNELS 3 Xrotation Yrotation Zrotation
											JOINT LeftHand
											{
												OFFSET 26.026505 0.000000 0.000000
												CHANNELS 3 Xrotation Yrotation Zrotation
												End Site
												{
													OFFSET 0 0 0
												}
											}
										}
									}
								}
							}
						}
						JOINT RightShoulder_virtual
						{
							OFFSET 0.000000 0.000000 0.000000
							CHANNELS 3 Xrotation Yrotation Zrotation
							JOINT RightShoulder
							{
								OFFSET -7.570500 7.247704 -3.868750
								CHANNELS 3 Xrotation Yrotation Zrotation
								JOINT RightShoulder_split
								{
									OFFSET -7.570500 7.247704 -3.868750
									CHANNELS 3 Xrotation Yrotation Zrotation
									JOINT RightArm
									{
										OFFSET -9.308998 -2.777710 0.208500
										CHANNELS 3 Xrotation Yrotation Zrotation
										JOINT RightForeArm
										{
											OFFSET -29.972300 0.000000 0.000000
											CHANNELS 3 Xrotation Yrotation Zrotation
											JOINT RightHand
											{
												OFFSET -26.026505 0.000000 0.000000
												CHANNELS 3 Xrotation Yrotation Zrotation
												End Site
												{
													OFFSET 0 0 0
												}
											}
										}
									}
								}
							}
						}
					}
				}
			}
		}
	}
}
MOTION
Frames: 4
Frame Time: 0.03333333
0.288774 78.878304 -0.156879 0.000000 0.000000 0.000000 3.037454 -58.355046 6.232834 -34.680231 8.733572 27.676992 40.313740 -8.737426 -10.518995 -7.470533 -1.705596 -10.812295 -0.367826 1.237918 0.746164 0.000000 0.000000 0.000000 3.037454 -58.355046 6.232834 -31.022507 -7.193404 -29.202136 46.885714 5.280625 -6.185225 -19.296369 0.939592 23.039357 -0.365134 -0.996895 -0.741126 0.000000 0.000000 0.000000 3.037454 -58.355046 6.232834 11.190429 0.276965 -2.458389 8.434585 0.027688 -5.592316 0.000000 0.000000 0.000000 0.000000 0.000000 0.000000 8.457039 0.027890 -5.591868 -21.555841 25.063367 12.062736 -0.293896 25.465773 -3.209027 0.000000 0.000000 0.000000 8.457039 0.027890 -5.591868 -6.221634 -11.503768 -4.023776 0.000000 0.000000 0.000000 -23.062205 9.568413 -36.639641 0.046085 -43.168920 -0.011184 0.000000 0.000000 0.000000 8.457039 0.027890 -5.591868 -5.488218 10.658255 2.466463 0.000000 0.000000 0.000000 -41.473906 -26.755586 30.079043 -155.044352 68.137154 156.691315 0.000000 0.000000 0.000000 
0.093264 78.924889 0.207203 0.000000 0.000000 0.000000 1.943257 -58.304544 4.588784 -33.856425 7.889109 28.144392 40.770874 -8.552586 -10.587770 -8.120864 -1.617045 -10.938740 -0.364008 1.237962 0.754850 0.000000 0.000000 0.000000 1.943257 -58.304544 4.588784 -29.901069 -8.144503 -28.801241 46.307081 5.605497 -6.131253 -19.377696 0.938221 22.986148 -0.361655 -0.996859 -0.748967 0.000000 0.000000 0.000000 1.943257 -58.304544 4.588784 11.071045 0.211529 -2.560828 8.093936 -0.081182 -5.786256 0.000000 0.000000 0.000000 0.000000 0.000000 0.000000 8.133085 -0.021283 -5.670396 -18.473608 24.513735 14.037475 -1.509211 25.960386 -3.156107 0.000000 0.000000 0.000000 8.133085 -0.021283 -5.670396 -6.237336 -11.503388 -4.274838 0.000000 0.000000 0.000000 -23.016761 9.112617 -36.903628 0.376348 -42.965814 0.192079 0.000000 0.000000 0.000000 8.133085 -0.021283 -5.670396 -5.454995 9.092291 2.875205 0.000000 0.000000 0.000000 -39.552034 -24.929116 32.615260 -147.720791 70.244773 149.319956 0.000000 0.000000 0.000000 
-0.365386 78.974846 0.562767 0.000000 0.000000 0.000000 0.761904 -58.232069 2.853784 -33.051241 7.599630 28.908619 41.069781 -8.921069 -10.657793 -8.786935 -1.575524 -10.924956 -0.358838 1.237981 0.766514 0.000000 0.000000 0.000000 0.761904 -58.232069 2.853784 -28.419958 -9.060098 -28.232199 45.770511 5.760593 -6.086278 -19.738584 0.875182 22.955684 -0.358514 -0.996904 -0.756118 0.000000 0.000000 0.000000 0.761904 -58.232069 2.853784 10.776976 0.141074 -2.673708 7.238973 -0.187260 -5.957854 0.000000 0.000000 0.000000 0.000000 0.000000 0.000000 7.302201 -0.146036 -5.752770 -15.262425 23.781300 15.793670 -2.545714 26.126746 -2.432409 0.000000 0.000000 0.000000 7.302201 -0.146036 -5.752770 -6.328932 -11.385485 -4.905911 0.000000 0.000000 0.000000 -22.894425 7.888644 -37.610266 0.611307 -42.459915 0.290289 0.000000 0.000000 0.000000 7.302201 -0.146036 -5.752770 -5.464588 7.537296 3.772438 0.000000 0.000000 0.000000 -37.732516 -22.484995 35.680621 -145.612584 74.178969 146.687274 0.000000 0.000000 0.000000 
-0.568211 79.035553 0.901684 0.000000 0.000000 0.000000 -0.228899 -58.151964 1.328060 -32.643352 7.573870 29.597645 41.349989 -9.421968 -10.733885 -9.215380 -1.600745 -10.651862 -0.352943 1.238093 0.779787 0.000000 0.000000 0.000000 -0.228899 -58.151964 1.328060 -27.170704 -9.729495 -27.715489 45.148677 5.823281 -6.031283 -19.811283 0.838682 23.037784 -0.359454 -0.996916 -0.754012 0.000000 0.000000 0.000000 -0.228899 -58.151964 1.328060 10.394984 0.082372 -2.755876 6.101845 -0.226080 -6.006307 0.000000 0.000000 0.000000 0.000000 0.000000 0.000000 6.176577 -0.295612 -5.836878 -13.169311 22.947267 16.636299 -0.497743 24.537644 -0.243714 0.000000 0.000000 0.000000 6.176577 -0.295612 -5.836878 -6.535423 -10.807631 -5.732530 0.000000 0.000000 0.000000 -22.738458 6.153022 -38.622862 0.152897 -41.815750 -0.103721 0.000000 0.000000 0.000000 6.176577 -0.295612 -5.836878 -5.443925 5.937230 4.860415 0.000000 0.000000 0.000000 -36.781340 -19.266239 38.375090 -132.687763 77.994572 133.370672 0.000000 0.000000 0.000000 
